<?xml version="1.0" encoding="UTF-8"?>
<svg id="Layer_1" data-name="Layer 1" xmlns="http://www.w3.org/2000/svg" xmlns:xlink="http://www.w3.org/1999/xlink" viewBox="0 0 1500 1226.26">
  <defs>
    <style>
      .cls-1 {
        fill: url(#linear-gradient-2);
      }

      .cls-1, .cls-2 {
        fill-rule: evenodd;
      }

      .cls-2 {
        fill: url(#linear-gradient);
      }

      .cls-3 {
        fill: #fcd116;
      }
    </style>
    <linearGradient id="linear-gradient" x1="-6.02" y1="627.29" x2="1447.12" y2="605.52" gradientUnits="userSpaceOnUse">
      <stop offset="0" stop-color="#007a5e"/>
      <stop offset=".52" stop-color="#ce1126"/>
      <stop offset="1" stop-color="#fcd116"/>
    </linearGradient>
    <linearGradient id="linear-gradient-2" x1="-8.73" y1="446.77" x2="1444.42" y2="425" xlink:href="#linear-gradient"/>
  </defs>
  <g>
    <path class="cls-2" d="m1059.6,19.91c-44.68,0-97.42,11.26-97.43,11.26-83.07,17-146.65,49.39-188.3,75.13,52.79,54.25,92.51,120.61,114.87,194.01,20.86-18.91,53.15-42.69,97.79-57.32,7.88-2.59,41.31-12.94,73.06-12.94,116.01,0,210.14,94.13,210.14,210.15s-94.13,210.13-210.14,210.13c-67.53,0-127.67-32.04-166.15-81.69h-254.12v360.22c0,38.31-31.38,70.04-70.05,70.04v210.15h70.05c115.65,0,210.14-94.49,210.14-210.15v-194.99c61.65,35.75,133.53,56.55,210.14,56.55,232.03,0,420.28-188.25,420.28-420.26S1291.62,19.91,1059.6,19.91Z"/>
    <path class="cls-1" d="m232.91,510.23h612.53c2.92-15.7,4.38-31.74,5.11-47.8.36-.37,0-.73,0-.73.73-7.29.73-14.23.73-21.52,0-13.14-.73-25.91-1.82-38.67-14.96-166.73-127.32-305.36-280.18-358.26-43.41-15.32-89.75-23.35-138.27-23.35C198.98,19.91,10.73,207.79,10.73,440.19s188.25,420.27,420.28,420.27c32.88,0,64.56-4.39,95.06-11.9v-221.82c-28.52,14.8-60.62,23.58-95.06,23.58-91.21,0-169.28-58.73-198.1-140.08Zm198.1-280.19c91.57,0,169.27,58.38,198.46,140.1H232.91c28.82-81.72,106.89-140.1,198.1-140.1Z"/>
  </g>
  <polygon class="cls-3" points="739.99 337.32 758.8 395.28 819.74 395.26 770.42 431.06 789.28 489 739.99 453.16 690.7 489 709.56 431.06 660.24 395.26 721.18 395.28 739.99 337.32"/>
</svg>