<?xml version="1.0" encoding="UTF-8"?>
<svg id="Layer_1" data-name="Layer 1" xmlns="http://www.w3.org/2000/svg" viewBox="0 0 1500 1226.26">
  <defs>
  </defs>
  <g>
    <path fill-rule="evenodd" fill="#ce1126" class="cls-2" d="m992.02,642.72v215.61c-49.85-8.44-96.62-25.9-138.72-50.31v194.28c0,115.22-94.11,209.33-209.34,209.33h-69.7v-209.33c38.44,0,69.7-31.6,69.7-69.7v-358.89h253.14c24.19,31.26,57.04,55.44,94.91,69.02Z"/>
    <path fill-rule="evenodd" fill="#ce1126" class="cls-2" d="m992.02,33.43v215.15c-.91.23-1.6.46-2.17.68-44.49,14.61-76.66,38.33-97.42,57.16-22.24-73.13-61.83-139.18-114.42-193.25,41.53-25.67,104.84-57.95,187.66-74.83,0,0,10.61-2.28,26.35-4.91Z"/>
    <path fill-rule="evenodd" fill="#fcd116" class="cls-3" d="m1481.3,445.71c0,231.12-187.54,418.67-418.67,418.67-24.07,0-47.68-2.05-70.61-6.05v-215.61c22.13,7.98,45.86,12.32,70.61,12.32,115.56,0,209.34-93.77,209.34-209.33s-93.77-209.34-209.34-209.34c-29.2,0-60.01,8.9-70.61,12.21V33.43c19.16-2.97,46.09-6.39,70.61-6.39,231.12,0,418.67,187.2,418.67,418.67Z"/>
    <path fill-rule="evenodd" fill="#ce1126" class="cls-2" d="m531.14,631.54v220.97c-8.9,2.17-17.91,4.11-27.04,5.7v-214.93c9.36-3.31,18.37-7.19,27.04-11.75Z"/>
    <path fill-rule="evenodd" fill="#ce1126" class="cls-2" d="m854.44,467.16s.34.46,0,.8c-.8,15.97-2.17,31.94-5.13,47.57h-345.2v-139.52h130.05c-21.56-60.35-69.47-107.8-130.05-128.45V32.52c24.07,3.88,47.57,9.81,70.16,17.8,152.18,52.71,264.2,190.85,279.04,356.95,1.14,12.66,1.82,25.44,1.82,38.45,0,7.3,0,14.26-.69,21.45Z"/>
    <path fill-rule="evenodd" fill="#007a5e" class="cls-1" d="m239.1,376.01h265v139.52H239.1c28.75,81,106.55,139.52,197.36,139.52,23.84,0,46.54-4.22,67.65-11.75v214.93c-21.9,3.99-44.49,6.16-67.65,6.16-231.12,0-418.67-187.54-418.67-418.67S205.33,27.04,436.45,27.04c23.04,0,45.63,1.83,67.65,5.48v215.04c-21.22-7.19-43.92-11.18-67.65-11.18-90.81,0-168.61,58.18-197.36,139.63Z"/>
  </g>
  <polygon fill="#fcd116" class="cls-4" points="752.87 355.87 770.15 409.15 826.17 409.12 780.84 442.03 798.17 495.29 752.87 462.35 707.56 495.29 724.9 442.03 679.57 409.12 735.58 409.15 752.87 355.87"/>
</svg>