<svg width="575" height="154" viewBox="0 0 575 154" fill="none" xmlns="http://www.w3.org/2000/svg">
<g clip-path="url(#clip0_4_2)">
<path d="M165.785 134.66C168.465 129.848 169.453 124.627 169.481 119.358C169.621 92.7054 169.557 66.0505 169.599 39.3981C169.604 35.7354 169.443 32.0917 168.793 28.4773C166.975 18.385 161.372 10.5402 151.768 5.14916C144.747 1.20768 136.898 0.048271 128.83 0.0317262C100.533 -0.0242715 72.2358 0.0177268 43.9395 0.00118199C39.8445 -0.00136336 35.7818 0.213719 31.712 0.676973C14.211 2.67253 0.586283 16.1451 0.164453 32.1795C-0.0471629 40.219 0.00609148 48.2636 0.00609148 56.3069C0.00609148 77.497 0.0327186 98.687 0.0719587 119.877C0.0817687 125.022 1.01933 130.004 3.57273 134.66C6.24385 140.492 10.72 144.953 16.4379 148.413C23.7449 152.836 31.9615 154.015 40.5649 154C69.9739 153.947 99.3829 153.977 128.792 153.982C134.556 153.982 140.253 153.617 145.702 151.704C154.914 148.469 161.756 142.933 165.785 134.66Z" fill="#F7F7F7"/>
<path d="M3.57406 134.66C1.01926 130.003 0.0816995 125.022 0.0718895 119.877C0.0340509 98.6866 0.00742379 77.4965 0.00602236 56.3065C0.00602236 48.2644 -0.047232 40.2186 0.162982 32.1803C0.586214 16.1446 14.2109 2.67208 31.712 0.677797C35.7817 0.21327 39.8445 -0.000539395 43.9394 0.000733281C72.2357 0.0160054 100.533 -0.0259929 128.83 0.0312775C136.899 0.0478223 144.747 1.20723 151.768 5.14743C161.371 10.5385 166.975 18.3833 168.793 28.4756C169.444 32.09 169.604 35.7337 169.599 39.3964C169.557 66.0501 169.621 92.7037 169.481 119.356C169.453 124.625 168.465 129.847 165.784 134.659C165.124 134.637 164.465 134.596 163.805 134.596C111.054 134.594 58.3027 134.594 5.55148 134.596C4.8914 134.596 4.23273 134.637 3.57266 134.659L3.57406 134.66ZM117.47 121.19C118.986 110.875 118.602 101.013 116.368 91.2579C110.434 65.3526 94.6277 45.7852 69.8995 31.9882C68.4126 31.1584 67.7693 31.3658 66.85 32.664C56.649 47.0821 46.3765 61.4582 36.1237 75.8458C35.2333 77.0956 35.5673 77.8465 37.1257 78.0985C63.8467 82.3416 86.8176 93.2726 106.452 110.151C110.329 113.485 113.892 117.088 117.47 121.19ZM122.767 84.9531C125.686 58.6724 118.006 35.091 100.898 13.5993C96.7943 19.348 92.9839 24.8166 89.001 30.1797C87.9569 31.586 88.191 32.2312 89.5125 33.3207C106.558 47.3621 117.286 64.7596 122.767 84.9531Z" fill="#015073"/>
<path d="M3.57397 134.66C4.23405 134.638 4.89272 134.598 5.55279 134.598C58.304 134.595 111.055 134.595 163.806 134.598C164.466 134.598 165.125 134.638 165.785 134.66C161.758 142.931 154.914 148.467 145.703 151.702C140.254 153.617 134.557 153.982 128.793 153.98C99.3841 153.975 69.9751 153.945 40.5661 153.998C31.9627 154.014 23.7447 152.834 16.4391 148.411C10.7213 144.951 6.2451 140.49 3.57397 134.659V134.66Z" fill="#FCC900"/>
<path d="M117.468 121.19C113.892 117.088 110.329 113.485 106.45 110.151C86.8162 93.2739 63.8454 82.3428 37.1243 78.0985C35.564 77.8507 35.23 77.0998 36.1223 75.8458C46.3751 61.4582 56.6476 47.0821 66.8486 32.6639C67.768 31.3645 68.4112 31.1584 69.8981 31.9881C94.625 45.7852 110.433 65.3526 116.367 91.2579C118.601 101.013 118.985 110.875 117.468 121.19ZM74.4584 50.8008C66.0582 50.783 59.2361 56.9822 59.2375 64.631C59.2403 72.1754 65.9741 78.3416 74.3112 78.4332C82.6399 78.5235 89.6106 72.2747 89.6541 64.6768C89.6975 57.0739 82.8487 50.8187 74.4584 50.8021V50.8008Z" fill="#FCC900"/>
<path d="M122.766 84.9544C117.285 64.7609 106.557 47.3634 89.5111 33.3219C88.1896 32.2338 87.9541 31.5873 88.9996 30.181C92.9838 24.8179 96.7943 19.3492 100.896 13.6006C118.005 35.091 125.685 58.6736 122.766 84.9544Z" fill="#FCC900"/>
<path d="M74.4584 50.8009C82.8487 50.8187 89.6975 57.0739 89.654 64.6756C89.6106 72.2735 82.6399 78.5223 74.3112 78.4319C65.9741 78.3403 59.2402 72.1755 59.2374 64.6298C59.2346 56.9823 66.0582 50.783 74.4584 50.7996V50.8009Z" fill="#015073"/>
<path d="M287.047 42.2244C284.171 46.143 281.428 49.8694 278.696 53.6034C275.804 57.5525 272.909 61.4978 270.05 65.466C269.541 66.1724 269.013 66.5745 268.007 66.5542C265.033 66.4956 262.055 66.4944 259.081 66.5529C257.991 66.5745 257.435 66.0973 256.856 65.3617C251.592 58.6725 246.295 52.0062 241.003 45.3361C240.787 45.0638 240.539 44.8105 240.207 44.4376C239.624 45.2407 239.827 45.9686 239.827 46.6406C239.813 60.6897 239.791 74.7388 239.855 88.7878C239.862 90.287 239.426 90.7236 237.77 90.6981C231.952 90.6103 226.132 90.6268 220.315 90.6892C218.929 90.7045 218.506 90.3392 218.507 89.0653C218.543 63.188 218.548 37.3106 218.503 11.4346C218.5 10.0626 218.964 9.69865 220.412 9.71647C225.832 9.78265 231.256 9.77756 236.677 9.72538C237.887 9.71392 238.592 10.1237 239.272 10.993C247.381 21.3678 255.529 31.7185 263.665 42.0755C264.54 43.1887 265.38 43.176 266.185 42.0374C273.43 31.8572 280.708 21.6949 287.888 11.4766C288.831 10.1339 289.833 9.67574 291.557 9.71265C296.711 9.82337 301.871 9.79538 307.028 9.7292C308.417 9.71138 308.787 10.0919 308.784 11.3455C308.745 37.2826 308.748 63.2198 308.783 89.1569C308.784 90.3125 308.456 90.7019 307.149 90.6905C301.132 90.637 295.115 90.6268 289.098 90.693C287.585 90.7096 287.399 90.1063 287.401 88.9558C287.431 74.0668 287.421 59.1765 287.414 44.2862C287.414 43.7033 287.593 43.0975 287.047 42.227V42.2244Z" fill="#FDC901"/>
<path d="M470.858 42.3668C469.725 43.8902 468.58 45.4085 467.458 46.9395C462.996 53.0357 458.516 59.1203 454.111 65.2495C453.404 66.2333 452.633 66.6584 451.366 66.5489C450.383 66.4649 449.351 66.3797 448.399 66.5553C443.289 67.4932 440.26 65.3819 437.595 61.5346C433.699 55.9081 429.16 50.6481 424.896 45.2329C424.678 44.9567 424.457 44.6843 424.238 44.4133C423.518 44.9707 423.776 45.4785 423.776 45.9163C423.762 60.2008 423.742 74.4853 423.797 88.7686C423.803 90.2347 423.416 90.7247 421.719 90.698C415.904 90.6025 410.085 90.619 404.269 90.6967C402.773 90.717 402.386 90.32 402.387 88.9735C402.429 63.1662 402.429 37.3588 402.382 11.5502C402.379 10.1287 402.818 9.70231 404.372 9.72394C409.658 9.79903 414.948 9.8003 420.234 9.72394C421.663 9.70358 422.515 10.149 423.32 11.1812C431.379 21.5089 439.487 31.8049 447.575 42.1135C448.868 43.7629 448.857 43.7757 450.103 42.0232C457.375 31.7921 464.663 21.5687 471.89 11.311C472.689 10.1757 473.527 9.68449 475.061 9.71121C480.347 9.80539 485.636 9.78248 490.924 9.7163C492.309 9.69849 492.721 10.0752 492.718 11.3402C492.68 37.2074 492.68 63.0758 492.711 88.9429C492.712 90.2309 492.411 90.7196 490.846 90.6954C485.031 90.605 479.212 90.6038 473.396 90.698C471.727 90.7247 471.297 90.2742 471.303 88.7864C471.359 73.8426 471.335 58.8976 471.335 43.9538C471.335 43.4893 471.335 43.0235 471.335 42.559C471.175 42.4953 471.017 42.4317 470.857 42.3668H470.858Z" fill="#FDC901"/>
<path d="M355.701 93.5539C335.902 93.5513 320.076 79.2477 320.085 61.3666C320.095 43.511 335.936 29.0114 355.399 29.0457C375.319 29.0801 391.158 43.4053 391.127 61.3628C391.096 79.1917 375.289 93.5577 355.703 93.5551L355.701 93.5539ZM371.899 61.2368C371.821 52.9606 364.498 46.4114 355.408 46.489C346.371 46.5654 339.184 53.2889 339.274 61.5804C339.361 69.5741 346.766 76.1857 355.585 76.1424C364.72 76.0979 371.978 69.4672 371.899 61.2381V61.2368Z" fill="#FDC901"/>
<path d="M575 61.3844C574.986 79.3635 559.167 93.5666 539.172 93.5526C519.879 93.5386 503.929 79.039 503.947 61.5282C503.966 43.4142 519.875 28.9541 539.708 29.0241C559.238 29.0928 575.014 43.5581 575 61.3844ZM523.185 61.4544C523.338 69.7523 530.657 76.2442 539.753 76.1487C548.755 76.0546 555.976 69.2406 555.806 61.0013C555.639 52.8677 548.147 46.3032 539.248 46.4928C530.192 46.685 523.035 53.35 523.183 61.4544H523.185Z" fill="#FDC901"/>
<path d="M356.029 126.352C354.428 128.53 352.837 130.713 351.223 132.882C349.926 134.623 346.987 134.654 345.61 132.938C344.028 130.968 342.469 128.981 340.396 127.084C340.396 128.177 340.396 129.269 340.396 130.362C340.401 133.781 340.363 137.202 340.436 140.619C340.461 141.774 340.092 142.169 338.767 142.187C333.196 142.259 333.195 142.299 333.197 137.199C333.2 130.361 333.238 123.523 333.186 116.685C333.176 115.364 333.499 114.946 335.103 114.774C338.621 114.396 340.898 115.454 342.619 118.292C344.042 120.639 346.074 122.676 347.73 124.915C348.595 126.083 349.097 126.285 350.007 124.919C351.888 122.101 354.016 119.417 355.875 116.588C356.722 115.3 357.654 114.774 359.335 114.814C363.763 114.918 363.775 114.844 363.778 118.856C363.784 126.054 363.741 133.252 363.807 140.449C363.82 141.767 363.467 142.199 361.946 142.192C356.549 142.166 356.549 142.22 356.549 137.378V126.46C356.377 126.425 356.203 126.388 356.031 126.352H356.029Z" fill="#FDC901"/>
<path d="M403.395 126.707C403.395 128.659 403.395 130.612 403.395 132.563C403.395 135.203 403.321 137.847 403.427 140.485C403.483 141.865 402.948 142.306 401.483 142.179C400.305 142.076 399.101 142.092 397.917 142.174C396.667 142.26 396.171 141.936 396.179 140.698C396.231 132.594 396.224 124.491 396.179 116.388C396.172 115.249 396.508 114.942 397.819 114.795C401.319 114.402 403.689 115.457 405.758 118.141C408.925 122.251 412.567 126.059 416.072 130.069C416.79 129.418 416.509 128.731 416.514 128.139C416.545 124.238 416.578 120.335 416.493 116.435C416.465 115.154 416.936 114.715 418.301 114.836C419.217 114.917 420.15 114.847 421.075 114.851C422.865 114.858 423.76 115.647 423.763 117.219C423.763 124.902 423.721 132.586 423.796 140.267C423.81 141.758 423.325 142.103 421.695 142.221C418.766 142.435 416.871 141.582 415.1 139.364C411.581 134.955 407.644 130.823 403.881 126.576C403.719 126.619 403.556 126.663 403.393 126.706L403.395 126.707Z" fill="#FDC901"/>
<path d="M288.965 124.594C290.342 123.714 291.351 122.855 292.664 122.405C295.907 121.294 299.058 121.943 301.224 124.384C301.99 125.25 302.322 125.389 303.256 124.489C305.782 122.053 308.96 121.186 312.462 122.365C315.998 123.555 317.007 126.353 317.079 129.469C317.165 133.188 317.064 136.909 317.133 140.628C317.154 141.763 316.872 142.187 315.497 142.192C310.016 142.213 310.026 142.262 310.012 137.263C310.005 134.925 310.032 132.582 309.887 130.249C309.807 128.958 309.296 127.711 307.651 127.391C306.103 127.089 304.83 127.622 303.739 128.653C303.104 129.252 303.128 129.938 303.128 130.657C303.128 134.017 303.09 137.377 303.149 140.737C303.169 141.84 302.747 142.161 301.547 142.187C296.012 142.3 296.017 142.332 296.01 137.325C296.008 135.046 296.068 132.762 295.929 130.489C295.852 129.23 295.465 127.907 293.893 127.455C292.376 127.02 291.069 127.51 289.902 128.468C289.156 129.081 289.162 129.829 289.16 130.605C289.153 133.905 289.068 137.208 289.195 140.504C289.251 141.927 288.688 142.187 287.282 142.187C282.035 142.19 282.027 142.231 282.014 137.447C282.003 133.188 282.073 128.927 281.982 124.668C281.954 123.354 282.454 122.825 283.835 122.706C284.814 122.621 285.802 122.427 286.74 122.152C288.269 121.704 289.173 121.862 288.87 123.593C288.831 123.819 288.912 124.062 288.97 124.594H288.965Z" fill="#FDC901"/>
<path d="M266.495 142.974C256.685 142.946 250.95 134.682 255.569 127.229C258.212 122.964 264.346 120.748 270.181 121.952C275.534 123.057 279.193 126.76 279.511 131.397C279.961 137.949 274.285 142.997 266.495 142.974ZM272.238 132.108C272.164 130.145 271.533 127.981 268.865 126.904C266.998 126.151 265.095 126.218 263.431 127.397C261.37 128.857 261.105 130.936 261.367 133.096C261.783 136.521 264.077 138.379 267.48 138.15C270.497 137.946 272.239 135.895 272.236 132.11L272.238 132.108Z" fill="#FDC901"/>
<path d="M380.103 114.852C383.87 114.852 387.639 114.883 391.404 114.832C392.49 114.818 392.974 115.065 392.908 116.125C392.827 117.441 392.804 118.769 392.911 120.083C393.006 121.265 392.433 121.492 391.291 121.451C389.376 121.381 387.449 121.532 385.543 121.397C383.818 121.275 383.486 121.891 383.51 123.336C383.604 129.036 383.514 134.738 383.587 140.438C383.604 141.742 383.27 142.352 381.725 142.169C379.981 141.963 377.639 142.882 376.628 141.763C375.768 140.812 376.323 138.78 376.318 137.227C376.301 132.486 376.27 127.744 376.35 123.005C376.372 121.726 375.928 121.334 374.552 121.399C372.509 121.494 370.454 121.39 368.407 121.45C367.384 121.48 366.973 121.176 367.017 120.228C367.078 118.909 367.102 117.585 367.017 116.269C366.944 115.16 367.388 114.813 368.602 114.832C372.434 114.89 376.267 114.853 380.102 114.853L380.103 114.852Z" fill="#FDC901"/>
<path d="M218.601 130.515C218.601 127.214 218.477 123.908 218.63 120.612C218.851 115.817 221.637 113.302 226.924 112.857C228.312 112.739 229.693 112.801 231.077 112.949C235.349 113.406 235.313 113.395 235.261 117.263C235.245 118.377 235.038 118.813 233.698 118.376C232.264 117.909 230.737 117.755 229.202 117.839C226.753 117.974 225.69 119.1 225.689 121.335C225.689 122.216 226.034 122.508 226.945 122.492C228.531 122.463 230.123 122.547 231.702 122.456C233.044 122.38 233.362 122.861 233.352 124.018C233.323 127.424 233.377 127.425 229.592 127.432C227.003 127.438 225.709 128.645 225.709 131.052C225.709 134.234 225.667 137.415 225.73 140.596C225.752 141.709 225.48 142.169 224.104 142.185C218.537 142.252 218.537 142.297 218.537 137.176C218.537 134.955 218.537 132.734 218.537 130.512C218.558 130.512 218.58 130.512 218.602 130.512L218.601 130.515Z" fill="#FDC901"/>
<path d="M243.19 125.527C243.968 125.299 244.194 124.601 244.68 124.154C245.824 123.103 247.106 122.297 248.698 121.97C251.956 121.302 252.689 121.828 252.692 124.767C252.692 124.947 252.692 125.128 252.692 125.307C252.695 127.078 251.739 127.916 249.825 127.822C245.747 127.621 243.2 129.784 243.2 133.447C243.2 135.906 243.158 138.366 243.21 140.824C243.231 141.83 242.858 142.154 241.729 142.182C236.068 142.32 236.068 142.349 236.068 137.258C236.068 133.12 236.12 128.98 236.036 124.844C236.01 123.541 236.33 122.808 237.893 122.712C238.807 122.656 239.705 122.39 240.608 122.208C242.93 121.739 242.913 121.736 242.921 123.81C242.924 124.373 242.665 124.991 243.19 125.527Z" fill="#FDC901"/>
</g>
<defs>
<clipPath id="clip0_4_2">
<rect width="575" height="154" fill="white"/>
</clipPath>
</defs>
</svg>
