<svg width="575" height="145" viewBox="0 0 575 145" fill="none" xmlns="http://www.w3.org/2000/svg">
<path fill-rule="evenodd" clip-rule="evenodd" d="M120.771 14.5601H32.6401C22.7578 14.5601 14.7472 22.0815 14.7472 31.3599C14.7472 40.6382 22.7578 48.1593 32.6401 48.1593H77.5742L5.24157 116.072C-1.74719 122.632 -1.74719 133.269 5.24157 139.83C12.2288 146.391 23.5582 146.391 30.5454 139.83L102.878 71.9178V114.105C102.878 123.383 110.889 130.905 120.771 130.905C130.654 130.905 138.664 123.383 138.664 114.105V31.3599C138.664 22.0815 130.654 14.5601 120.771 14.5601Z" fill="black"/>
<path fill-rule="evenodd" clip-rule="evenodd" d="M172.276 130.19H260.407C270.29 130.19 278.301 122.669 278.301 113.391C278.301 104.112 270.29 96.5908 260.407 96.5908H215.474L287.806 28.6787C294.795 22.1185 294.795 11.4814 287.806 4.92124C280.819 -1.64041 269.49 -1.64041 262.503 4.92124L190.169 72.8334V30.6454C190.169 21.367 182.159 13.8459 172.276 13.8459C162.394 13.8459 154.383 21.367 154.383 30.6454V113.391C154.383 122.669 162.394 130.19 172.276 130.19Z" fill="#FF7900"/>
<path fill-rule="evenodd" clip-rule="evenodd" d="M356.963 56.0883C367.04 56.0883 370.828 47.9506 370.828 39.8806C370.828 31.4037 367.04 23.2656 356.963 23.2656C346.887 23.2656 343.099 31.4033 343.099 39.8806C343.099 47.9502 346.887 56.0883 356.963 56.0883ZM356.963 14.3144C372.757 14.3144 382.047 25.5037 382.047 39.8806C382.047 53.8503 372.757 65.0395 356.963 65.0395C341.17 65.0395 331.879 53.8503 331.879 39.8806C331.879 25.5037 341.17 14.3144 356.963 14.3144ZM385.906 29.7628H395.293V36.3135H395.431C397.24 31.8783 402.107 28.8073 406.905 28.8073C407.601 28.8073 408.435 28.9446 409.06 29.1493V38.1556C408.156 37.9509 406.696 37.8146 405.514 37.8146C398.283 37.8146 395.78 42.9317 395.78 49.1415V65.0395H385.906V29.7628ZM439.26 47.289C437.423 48.685 433.593 48.7517 430.225 49.2836C426.856 49.8814 423.793 50.8789 423.793 54.3361C423.793 57.8597 426.931 58.7239 430.454 58.7239C438.953 58.7239 439.26 52.8734 439.26 50.8129V47.289ZM414.145 40.3089C414.758 31.4671 423.87 28.8073 432.75 28.8073C440.637 28.8073 450.132 30.3359 450.132 38.5799V56.4641C450.132 59.588 450.514 62.7119 451.51 64.1087H440.485C440.101 63.0449 439.796 61.9148 439.718 60.7851C436.273 63.909 431.221 65.0395 426.396 65.0395C418.893 65.0395 412.92 61.7822 412.92 54.7351C412.92 46.9567 419.659 45.0951 426.396 44.2969C433.057 43.4328 439.26 43.6324 439.26 39.7762C439.26 35.7215 436.044 35.1229 432.215 35.1229C428.081 35.1229 425.402 36.5856 425.018 40.3089H414.145ZM455.369 29.7628H465.036V34.6758H465.252C467.83 30.7182 472.27 28.8073 476.566 28.8073C487.38 28.8073 490.101 34.6074 490.101 43.3415V65.0395H479.932V45.1158C479.932 39.3157 478.141 36.4498 473.416 36.4498C467.901 36.4498 465.538 39.3846 465.538 46.5484V65.0395H455.37L455.369 29.7628ZM522.394 47.3676C522.394 41.5067 520.213 36.2733 513.293 36.2733C507.275 36.2733 504.642 41.1581 504.642 46.5299C504.642 51.693 506.749 57.3449 513.293 57.3449C519.387 57.3449 522.394 52.53 522.394 47.3676ZM532.55 63.5543C532.55 69.4852 530.293 79.5324 512.39 79.5324C504.718 79.5324 495.766 76.1827 495.239 67.95H505.845C506.823 71.6475 510.059 72.904 513.819 72.904C519.763 72.904 522.47 69.1363 522.394 63.9728V59.2289H522.244C519.913 62.9964 515.248 64.8112 510.585 64.8112C498.925 64.8112 493.96 56.5775 493.96 46.6698C493.96 37.3197 499.752 28.8077 510.66 28.8077C515.775 28.8077 519.687 30.4128 522.244 34.5994H522.395V29.7841H532.55V63.5543ZM564.317 43.2335C563.345 38.4465 561.025 35.9211 555.862 35.9211C549.128 35.9211 547.183 40.5744 547.033 43.2335H564.317ZM547.033 49.2165C547.333 55.1999 550.625 57.9257 556.536 57.9257C560.8 57.9257 564.242 55.5981 564.915 53.4709H574.268C571.275 61.5826 564.915 65.0395 556.162 65.0395C543.967 65.0395 536.409 57.5938 536.409 46.956C536.409 36.6523 544.415 28.8073 556.162 28.8073C569.33 28.8073 575.69 38.6458 574.941 49.2169L547.033 49.2165ZM357.228 114.416H357.378L369.271 79.5324H385.906V130.257H374.841V94.3089H374.691L361.517 130.257H352.41L339.237 94.664H339.086V130.257H328.02V79.5324H344.657L357.228 114.416ZM412.883 123.144C419.88 123.144 421.972 117.626 421.972 112.174C421.972 106.656 419.88 101.139 412.883 101.139C405.959 101.139 403.867 106.656 403.867 112.174C403.867 117.626 405.959 123.144 412.883 123.144ZM412.883 94.0252C424.641 94.0252 432.215 101.206 432.215 112.174C432.215 123.077 424.641 130.257 412.883 130.257C401.199 130.257 393.624 123.077 393.624 112.174C393.624 101.206 401.199 94.0252 412.883 94.0252ZM436.074 94.9807H445.741V99.8938H445.957C448.534 95.9372 452.975 94.0252 457.271 94.0252C468.084 94.0252 470.805 99.8253 470.805 108.56V130.257H460.636V110.333C460.636 104.534 458.846 101.668 454.12 101.668C448.605 101.668 446.243 104.602 446.243 111.766V130.257H436.074L436.074 94.9807ZM502.572 108.452C501.6 103.665 499.28 101.139 494.117 101.139C487.384 101.139 485.439 105.793 485.289 108.452H502.572ZM485.289 114.435C485.588 120.417 488.88 123.144 494.791 123.144C499.055 123.144 502.498 120.816 503.171 118.689H512.524C509.531 126.799 503.171 130.257 494.417 130.257C482.222 130.257 474.664 122.811 474.664 112.174C474.664 101.871 482.67 94.0252 494.417 94.0252C507.585 94.0252 513.945 103.864 513.196 114.435L485.289 114.435ZM536.148 133.243C533.895 138.835 530.334 141.127 523.211 141.127C521.104 141.127 518.996 140.992 516.888 140.789V132.906C518.851 133.04 520.886 133.31 522.92 133.243C526.481 132.906 527.644 129.469 526.481 126.707L513.255 94.0252H524.302L532.805 117.879H532.95L541.163 94.0252H551.846L536.148 133.243Z" fill="black"/>
</svg>
